<svg width="0" height="0" class="hidden">
    <symbol fill="none" xmlns="http://www.w3.org/2000/svg" viewBox="0 0 24 24" id="facebok-logo">
        <path d="M20.4844 0H3.51562C1.57727 0 0 1.57727 0 3.51562V20.4844C0 22.4227 1.57727 24 3.51562 24H10.5938V15.5156H7.78125V11.2969H10.5938V8.4375C10.5938 6.11115 12.4861 4.21875 14.8125 4.21875H19.0781V8.4375H14.8125V11.2969H19.0781L18.375 15.5156H14.8125V24H20.4844C22.4227 24 24 22.4227 24 20.4844V3.51562C24 1.57727 22.4227 0 20.4844 0Z" fill="black"></path>
    </symbol>
    <symbol fill="none" xmlns="http://www.w3.org/2000/svg" viewBox="0 0 46 100" id="denim">
        <path d="M41.9768 6.57685V1.19523C41.9768 0.535222 41.4416 0 40.7816 0H5.21813C4.55813 0 4.02291 0.535222 4.02291 1.19523V6.57804C3.67294 8.10722 0.791016 21.3345 0.791016 41.7017V98.8048C0.791016 99.4645 1.32624 100 1.98624 100H20.1262C20.7864 100 21.3214 99.4645 21.3214 98.8048C21.3214 98.3962 21.3446 64.4248 23.0002 42.4042C24.6556 64.4248 24.6786 98.3962 24.6786 98.8048C24.6786 99.4645 25.2138 100 25.8738 100H44.0142C44.6742 100 45.2094 99.4645 45.2094 98.8048V41.7014C45.2092 21.33 42.3256 8.10124 41.9768 6.57685ZM6.41336 2.39045H13.0861V5.51477H6.41336V2.39045ZM6.17981 7.90522H10.3978V11.0907C10.3978 11.2334 10.37 11.3927 10.168 11.5911C9.50134 12.2458 7.65735 12.6799 5.29965 12.7698C5.66132 10.4886 5.98331 8.843 6.17981 7.90522ZM18.9336 97.6096H3.18147V94.6954H18.9477C18.94 95.9231 18.9357 96.9115 18.9336 97.6096ZM21.8048 30.8528C19.5895 45.5472 19.0816 78.3387 18.9654 92.3047H7.8909L7.88851 92.0553C7.88229 91.3994 7.34826 90.8713 6.69352 90.8713H6.68204C6.0218 90.8778 5.49184 91.418 5.49805 92.0778L5.5002 92.3047H3.18147V41.7014C3.18147 30.3071 4.09103 21.1985 4.94012 15.1748C5.31734 15.1679 5.70339 15.1519 6.09208 15.1268C6.11049 16.4191 7.25384 16.4112 7.28491 16.4112C7.90309 16.4112 8.42684 15.935 8.47536 15.3085C8.48851 15.1371 8.50213 14.9733 8.51576 14.8141C9.85441 14.5351 11.0606 14.0654 11.8437 13.2962C12.4619 12.6888 12.7887 11.9262 12.7887 11.0907V7.90522H21.8052V30.8528H21.8048ZM21.8048 5.51477H15.4765V2.39045H21.8048V5.51477ZM40.7008 12.7703C38.3421 12.6802 36.4984 12.2463 35.8317 11.5911C35.6297 11.3927 35.602 11.2337 35.602 11.091V7.90522H39.8204C40.0167 8.843 40.3389 10.4888 40.7008 12.7703ZM32.9139 2.39045H39.5864V5.51477H32.9139V2.39045ZM24.1952 2.39045H30.5237V5.51477H24.1952V2.39045ZM24.1952 7.90522H26.197V17.4116C26.197 19.2525 25.7777 20.6014 24.9845 21.3121C24.7276 21.5425 24.4527 21.6876 24.1952 21.7806V7.90522ZM42.8187 97.6096H27.0664C27.064 96.9115 27.0599 95.9231 27.0518 94.6954H42.8187V97.6096ZM42.8187 92.3047H40.4998L40.5019 92.0778C40.5081 91.418 39.9782 90.8778 39.3179 90.8713H39.3067C38.6517 90.8713 38.1177 91.3994 38.1115 92.0553L38.1091 92.3047H27.0344C26.9182 78.3382 26.4102 45.5472 24.1952 30.8528V24.2483C24.8856 24.1249 25.7409 23.8252 26.5326 23.1343C27.8961 21.9441 28.5874 20.0191 28.5874 17.4118V7.90522H33.2115V11.0907C33.2115 11.926 33.5383 12.6888 34.1565 13.2962C34.9398 14.0661 36.1472 14.5359 37.4871 14.8146C37.5 14.9649 37.5127 15.1184 37.5251 15.279C37.5734 15.9056 38.0971 16.3818 38.7151 16.3818C39.0055 16.3818 39.895 16.2914 39.9072 15.1268C40.2961 15.1519 40.6826 15.1679 41.0601 15.1748C41.9092 21.1983 42.8185 30.3071 42.8185 41.7014V92.3047H42.8187Z" fill="#000F08"></path>
    </symbol>
    <symbol fill="none" xmlns="http://www.w3.org/2000/svg" viewBox="0 0 94 94" id="close">
        <path d="M3 3.24197L90.9997 91M91 3L3.00027 90.758" stroke="white" stroke-width="6"></path>
    </symbol>
    <symbol fill="none" xmlns="http://www.w3.org/2000/svg" viewBox="0 0 28 32" id="union">
        <path fill-rule="evenodd" clip-rule="evenodd" d="M20.5714 6.85714L27.4286 6.85714V32H0V6.85714L6.85714 6.85714C6.85714 3.07005 9.92719 0 13.7143 0C17.5014 0 20.5714 3.07005 20.5714 6.85714ZM18.2857 9.14286H9.14286V10.2857H18.2857V9.14286ZM6.85714 9.14286V12.5714L9.14285 12.5714V10.2857H18.2857V12.5714L20.5714 12.5714V9.14286H25.1429V29.7143H2.28571V9.14286H6.85714ZM9.14286 6.85714C9.14286 4.33241 11.1896 2.28571 13.7143 2.28571C16.239 2.28571 18.2857 4.33241 18.2857 6.85714H9.14286Z" fill="#000F08"></path>
    </symbol>
    <symbol fill="none" xmlns="http://www.w3.org/2000/svg" viewBox="0 0 16 16" id="expand-icon">
        <path fill-rule="evenodd" clip-rule="evenodd" d="M9 0H7V7H0V9H7V16H9V9H16V7H9V0Z" fill="#000F08"></path>
    </symbol>
    <symbol fill="none" xmlns="http://www.w3.org/2000/svg" viewBox="0 0 144 144" id="more">
        <g filter="url(#filter0_d_1_3233)">
            <g filter="url(#filter1_d_1_3233)">
                <circle cx="70" cy="70" r="70" fill="white"></circle>
            </g>
            <path d="M60.0891 44L54 50.0891L73.7787 69.9109L54 89.7328L60.0891 95.8219L86 69.9109L60.0891 44Z" fill="#000F08"></path>
        </g>
        <defs>
            <filter id="filter0_d_1_3233" x="0" y="0" width="144" height="144" filterUnits="userSpaceOnUse" color-interpolation-filters="sRGB">
                <feFlood flood-opacity="0" result="BackgroundImageFix"></feFlood>
                <feColorMatrix in="SourceAlpha" type="matrix" values="0 0 0 0 0 0 0 0 0 0 0 0 0 0 0 0 0 0 127 0" result="hardAlpha"></feColorMatrix>
                <feOffset dx="2" dy="2"></feOffset>
                <feGaussianBlur stdDeviation="1"></feGaussianBlur>
                <feColorMatrix type="matrix" values="0 0 0 0 0 0 0 0 0 0 0 0 0 0 0 0 0 0 0.1 0"></feColorMatrix>
                <feBlend mode="normal" in2="BackgroundImageFix" result="effect1_dropShadow_1_3233"></feBlend>
                <feBlend mode="normal" in="SourceGraphic" in2="effect1_dropShadow_1_3233" result="shape"></feBlend>
            </filter>
            <filter id="filter1_d_1_3233" x="0" y="0" width="144" height="144" filterUnits="userSpaceOnUse" color-interpolation-filters="sRGB">
                <feFlood flood-opacity="0" result="BackgroundImageFix"></feFlood>
                <feColorMatrix in="SourceAlpha" type="matrix" values="0 0 0 0 0 0 0 0 0 0 0 0 0 0 0 0 0 0 127 0" result="hardAlpha"></feColorMatrix>
                <feOffset dx="2" dy="2"></feOffset>
                <feGaussianBlur stdDeviation="1"></feGaussianBlur>
                <feColorMatrix type="matrix" values="0 0 0 0 0 0 0 0 0 0 0 0 0 0 0 0 0 0 0.1 0"></feColorMatrix>
                <feBlend mode="normal" in2="BackgroundImageFix" result="effect1_dropShadow_1_3233"></feBlend>
                <feBlend mode="normal" in="SourceGraphic" in2="effect1_dropShadow_1_3233" result="shape"></feBlend>
            </filter>
        </defs>
    </symbol>
    <symbol fill="none" xmlns="http://www.w3.org/2000/svg" viewBox="0 0 24 24" id="instagram-logo">
        <path d="M16.5 0H7.5C3.3585 0 0 3.3585 0 7.5V16.5C0 20.6415 3.3585 24 7.5 24H16.5C20.6415 24 24 20.6415 24 16.5V7.5C24 3.3585 20.6415 0 16.5 0ZM21.75 16.5C21.75 19.395 19.395 21.75 16.5 21.75H7.5C4.605 21.75 2.25 19.395 2.25 16.5V7.5C2.25 4.605 4.605 2.25 7.5 2.25H16.5C19.395 2.25 21.75 4.605 21.75 7.5V16.5Z" fill="black"></path>
        <path d="M12 6C8.6865 6 6 8.6865 6 12C6 15.3135 8.6865 18 12 18C15.3135 18 18 15.3135 18 12C18 8.6865 15.3135 6 12 6ZM12 15.75C9.933 15.75 8.25 14.067 8.25 12C8.25 9.9315 9.933 8.25 12 8.25C14.067 8.25 15.75 9.9315 15.75 12C15.75 14.067 14.067 15.75 12 15.75Z" fill="black"></path>
        <path d="M18.4499 6.35024C18.8914 6.35024 19.2494 5.99229 19.2494 5.55073C19.2494 5.10917 18.8914 4.75122 18.4499 4.75122C18.0083 4.75122 17.6504 5.10917 17.6504 5.55073C17.6504 5.99229 18.0083 6.35024 18.4499 6.35024Z" fill="black"></path>
    </symbol>
    <symbol fill="none" xmlns="http://www.w3.org/2000/svg" viewBox="0 0 72 100" id="tops">
        <path d="M71.1376 90.2739C66.3283 78.0976 56.707 62.9796 54.9761 60.3001L57.5026 41.543C61.8438 36.8323 60.8909 29.7708 60.4952 27.7106L62.7949 24.091C62.8885 23.9432 62.9522 23.7788 62.9818 23.6067L65.9831 6.20047C66.1004 5.51927 65.6733 4.8624 65.0029 4.69401C59.0696 3.20289 52.9431 0.169369 52.882 0.138971C52.2323 -0.184577 51.4427 0.0763229 51.1141 0.723947C47.7838 7.28583 36.1575 7.01885 36.0401 7.01436C36.025 7.01383 36.011 7.01753 35.996 7.01753C35.9835 7.01726 35.9719 7.01409 35.9595 7.01436C35.8426 7.01753 24.2158 7.28583 20.8854 0.723947C20.5569 0.0763229 19.767 -0.184841 19.1176 0.138971C19.0565 0.169369 12.9392 3.20078 6.99695 4.69401C6.32659 4.86266 5.89916 5.51927 6.01653 6.20047L9.01754 23.6067C9.04714 23.7788 9.11085 23.9432 9.20442 24.091L11.5102 27.7201C11.1441 29.7766 10.2557 36.9219 14.497 41.5422L17.0235 60.3001C15.2929 62.9799 5.67157 78.0978 0.861971 90.2739C0.705219 90.6707 0.749628 91.1188 0.981451 91.4772C1.27169 91.926 3.85109 95.4919 12.4822 95.4919C12.8911 95.4919 13.3164 95.4822 13.7534 95.4652C13.6096 96.0521 13.4682 96.6204 13.3297 97.1657C13.1586 97.8392 13.5385 98.5302 14.1991 98.7467C14.4293 98.8223 18.0954 99.9997 22.4664 99.9997C24.7524 99.9994 27.2319 99.6772 29.5123 98.7068C30.0066 98.4964 30.3204 98.0084 30.3138 97.4745H41.6858C41.6792 98.0087 41.993 98.4964 42.4873 98.7068C44.768 99.6775 47.2469 99.9997 49.5332 99.9997C53.9037 99.9997 57.57 98.8223 57.8005 98.7467C58.4611 98.5302 58.841 97.839 58.6699 97.1657C58.5317 96.6207 58.39 96.0526 58.2462 95.4658C58.6834 95.483 59.1082 95.4919 59.5177 95.4919C68.1475 95.4917 70.7282 91.9263 71.0184 91.4772C71.25 91.1188 71.2944 90.6707 71.1376 90.2739ZM16.6841 40.0048C13.5636 36.8844 13.677 31.7811 13.9635 29.2609L15.553 29.8527C15.705 29.9093 15.8609 29.936 16.0143 29.936C16.5503 29.936 17.0549 29.6074 17.2529 29.0753C17.5078 28.3912 17.1596 27.6302 16.4758 27.3754L13.7872 26.3741L11.5774 22.8965L8.82695 6.94193C13.1486 5.72995 17.2677 3.92532 19.1842 3.03583C23.7569 9.82795 35.1009 9.68098 36.0013 9.65719C36.9172 9.68019 48.2469 9.82267 52.8159 3.03583C54.7324 3.92532 58.8515 5.72995 63.1734 6.94193L60.4222 22.8965L58.2126 26.3741L55.5243 27.3754C54.8402 27.6302 54.4924 28.3912 54.7472 29.0753C54.9454 29.6074 55.4498 29.936 55.9859 29.936C56.1392 29.936 56.2951 29.9091 56.4471 29.8527L58.0606 29.2516C58.377 31.733 58.5349 36.786 55.316 40.0051C55.1114 40.2097 54.9795 40.4762 54.9409 40.7632L52.4459 59.2874H51.3917V44.8409C51.3917 44.1108 50.7999 43.5192 50.07 43.5192C49.3402 43.5192 48.7483 44.1108 48.7483 44.8409V59.2874H36.0002H23.2518V44.8409C23.2518 44.1108 22.6599 43.5192 21.9301 43.5192C21.2003 43.5192 20.6084 44.1108 20.6084 44.8409V59.2874H19.5545L17.0594 40.7632C17.0206 40.4759 16.8887 40.2094 16.6841 40.0048ZM3.63169 90.4698C8.33767 78.9244 17.1689 64.9579 19.1173 61.9305H20.6082V63.5599C20.2941 65.1514 17.0941 81.3122 14.3957 92.7865C7.65092 93.1914 4.66075 91.3538 3.63169 90.4698ZM44.3685 96.5958L45.5393 70.6961C45.5723 69.9668 45.0077 69.3491 44.2784 69.316C43.5499 69.2838 42.9314 69.8476 42.8983 70.5769L41.8018 94.8314H30.1978L29.1013 70.5769C29.0682 69.8479 28.4478 69.287 27.7212 69.316C26.9919 69.3491 26.4275 69.9668 26.4603 70.6961L27.631 96.5956C23.4149 98.0108 18.4369 97.1028 16.2064 96.5583C19.1607 84.6053 23.1846 64.1562 23.2264 63.9437C23.2431 63.8599 23.2513 63.7742 23.2513 63.6889V61.9305H35.9997H48.7478V63.6889C48.7478 63.7742 48.756 63.8596 48.7727 63.9437C48.8144 64.1565 52.8389 84.6074 55.7932 96.5599C53.5653 97.1068 48.595 98.0169 44.3685 96.5958ZM57.6039 92.7867C54.9055 81.3127 51.7055 65.1512 51.3914 63.5601V61.9308H52.8826C54.831 64.9582 63.6622 78.9247 68.3682 90.4701C67.3394 91.3535 64.3492 93.1914 57.6039 92.7867Z" fill="#000F08"></path>
    </symbol>
    <symbol fill="none" xmlns="http://www.w3.org/2000/svg" viewBox="0 0 28 25" id="wishlist-icon">
        <path d="M25.0938 2.41993C23.6644 0.985503 21.7719 0.201504 19.7521 0.201504C17.7324 0.201504 15.8341 0.99131 14.4047 2.42574L13.6581 3.17489L12.9 2.41412C11.4705 0.979695 9.56646 0.184082 7.54669 0.184082C5.5327 0.184082 3.63447 0.973888 2.21079 2.40251C0.781319 3.83693 -0.00575563 5.74176 3.16897e-05 7.76854C3.16897e-05 9.79532 0.792894 11.6943 2.22236 13.1288L13.0909 24.0351C13.2414 24.186 13.444 24.2673 13.6407 24.2673C13.8375 24.2673 14.0401 24.1919 14.1905 24.0409L25.0823 13.152C26.5117 11.7176 27.2988 9.81274 27.2988 7.78596C27.3046 5.75918 26.5233 3.85436 25.0938 2.41993ZM23.9827 12.0428L13.6407 22.3799L3.32195 12.0254C2.18764 10.8871 1.56261 9.37719 1.56261 7.76854C1.56261 6.15989 2.18185 4.64997 3.31616 3.51753C4.44469 2.38508 5.94939 1.75789 7.54669 1.75789C9.14978 1.75789 10.6603 2.38508 11.7946 3.52333L13.1025 4.83581C13.4092 5.1436 13.9012 5.1436 14.2079 4.83581L15.5042 3.53495C16.6386 2.3967 18.1491 1.7695 19.7463 1.7695C21.3436 1.7695 22.8484 2.3967 23.9827 3.52914C25.117 4.66739 25.7362 6.17731 25.7362 7.78596C25.742 9.39461 25.117 10.9045 23.9827 12.0428Z" fill="white"></path>
    </symbol>
    <symbol fill="none" xmlns="http://www.w3.org/2000/svg" viewBox="0 0 24 24" id="odonklassniki-logo">
        <path d="M12.0128 9.59711C13.3525 9.59277 14.4195 8.51711 14.4146 7.17439C14.4093 5.83166 13.3405 4.76213 12.0003 4.76111C10.6489 4.75983 9.56969 5.84851 9.58015 7.20349C9.59011 8.54111 10.6691 9.60272 12.0128 9.59711Z" fill="black"></path>
        <path d="M22.7234 0H1.2766C0.57166 0 0 0.571404 0 1.2766V22.7234C0 23.4286 0.57166 24 1.2766 24H22.7234C23.4286 24 24 23.4286 24 22.7234V1.2766C24 0.571404 23.4286 0 22.7234 0ZM12.0204 2.23813C14.7521 2.24502 16.9453 4.48008 16.9317 7.24289C16.9172 9.94162 14.6883 12.1292 11.9609 12.12C9.26068 12.1108 7.04655 9.87243 7.06187 7.16783C7.07796 4.43362 9.29362 2.22996 12.0204 2.23813ZM17.554 14.0609C16.9499 14.6816 16.2227 15.13 15.4149 15.4437C14.6512 15.7389 13.8146 15.8885 12.9863 15.9876C13.1114 16.1239 13.1704 16.19 13.248 16.2689C14.3724 17.3987 15.5014 18.5239 16.622 19.657C17.0035 20.0428 17.0842 20.5215 16.8735 20.9706C16.6435 21.4621 16.129 21.7846 15.624 21.7499C15.3043 21.7274 15.0551 21.5683 14.834 21.346C13.9854 20.4919 13.1206 19.654 12.2898 18.7849C12.048 18.5316 11.9316 18.5788 11.7176 18.7991C10.8641 19.678 9.99728 20.5432 9.12485 21.4034C8.73294 21.79 8.26698 21.8591 7.81174 21.6388C7.32868 21.4047 7.02179 20.9117 7.04553 20.4156C7.06187 20.0806 7.22681 19.8248 7.45685 19.595C8.56902 18.4841 9.67864 17.3704 10.7888 16.2574C10.8626 16.1839 10.931 16.105 11.038 15.9906C9.52417 15.8326 8.15923 15.4603 6.99115 14.5463C6.84638 14.4327 6.69651 14.3229 6.56374 14.1957C6.0526 13.7045 6.00128 13.1426 6.40596 12.5627C6.75166 12.0669 7.33328 11.9336 7.93711 12.2183C8.0543 12.2732 8.16562 12.3424 8.27234 12.4162C10.4497 13.9123 13.4413 13.954 15.6271 12.4841C15.8433 12.3189 16.0749 12.182 16.3435 12.1141C16.8656 11.9801 17.3512 12.1713 17.6316 12.6278C17.9525 13.1479 17.9482 13.6565 17.554 14.0609Z" fill="black"></path>
    </symbol>
    <symbol fill="none" xmlns="http://www.w3.org/2000/svg" viewBox="0 0 64 100" id="dress">
        <path d="M10.9147 50.5466L0.571289 100H63.4304L53.087 50.5466C52.9149 49.7245 52.6749 48.9112 52.3734 48.1295L47.2985 34.9659L49.058 22.6816L53.5144 23.1146L56.0831 12.0481C56.643 9.63618 56.1784 7.07006 54.8087 5.00761C53.4393 2.94515 51.2546 1.52153 48.8146 1.10138L42.4176 0L41.6801 2.01055C40.1971 6.0522 36.3076 8.76736 32.0007 8.76736C27.6939 8.76736 23.8043 6.0522 22.3214 2.01055L21.5839 0L15.1871 1.10087C12.7471 1.52102 10.5623 2.94464 9.19294 5.00709C7.82329 7.06955 7.35868 9.63592 7.91862 12.0476L10.4873 23.1141L14.9437 22.6811L16.7032 34.9654L11.6285 48.1287C11.3268 48.9112 11.0868 49.7245 10.9147 50.5466ZM14.475 17.5635L12.9252 10.8861C12.6803 9.83096 12.8753 8.75271 13.4746 7.85048C14.0739 6.94826 14.9915 6.35003 16.0592 6.16629L18.3892 5.7649C21.0509 10.7095 26.2805 13.907 32.001 13.907C37.7214 13.907 42.9508 10.7098 45.6128 5.7649L47.9427 6.16629C49.0102 6.35003 49.9281 6.948 50.5273 7.85048C51.1266 8.75297 51.3216 9.83096 51.0768 10.8861L49.527 17.5635L44.6671 17.0914L42.7665 30.3609H21.2362L19.3356 17.0914L14.475 17.5635ZM16.4239 49.9782L20.9155 38.3268H43.0857L47.5776 49.9782C47.7795 50.5024 47.9407 51.0479 48.056 51.5991L57.1045 94.8608H6.89665L15.9451 51.5996C16.0605 51.0479 16.2216 50.5024 16.4239 49.9782Z" fill="#000F08"></path>
    </symbol>
    <symbol fill="none" xmlns="http://www.w3.org/2000/svg" viewBox="0 0 58 100" id="swimwear">
        <path d="M53.6624 59.7257C51.7628 55.5859 49.662 51.9446 48.5788 50.1431C50.0378 47.036 53.7925 38.9793 55.0052 35.7915C57.2574 29.8719 53.3596 14.8621 52.5553 11.9132L51.7641 9.01239L51.6353 9.07376V0H46.6052V11.4661L33.4757 17.7104C30.6164 19.0705 27.3365 19.0703 24.4772 17.7104L11.3944 11.4882V0H6.36434V9.09589L6.18879 9.01239L5.39756 11.9132C4.59325 14.8621 0.695186 29.8719 2.9474 35.7913C4.16066 38.9806 7.91838 47.0431 9.37585 50.1471C8.30193 51.9446 6.21922 55.5771 4.33244 59.7111C0.518378 68.0673 -0.471039 73.9399 1.30709 77.6652C3.41721 82.0851 11.9736 86.1351 14.8428 87.3923C16.2998 89.2479 21.4151 95.7913 23.5644 98.9117L24.3139 100H33.5394L34.2856 98.8755C36.4181 95.6613 41.6297 88.9318 43.1393 86.9932C46.0471 85.8074 54.5047 82.0514 56.6536 77.6944C58.485 73.9812 57.5067 68.1035 53.6624 59.7257ZM29 24.8496C31.7735 24.8496 34.03 27.1061 34.03 29.8797C34.03 32.6533 31.7735 34.9098 29 34.9098C26.2264 34.9098 23.9699 32.6533 23.9699 29.8797C23.9699 27.1061 26.2264 24.8496 29 24.8496ZM52.1426 75.4693C51.0538 77.677 44.6475 81.0097 40.6617 82.5667L40.0201 82.817L39.5956 83.359C39.3395 83.6857 33.8067 90.7542 30.8626 94.9702H26.9401C24.025 90.9111 18.648 84.0926 18.3996 83.7772L17.9982 83.2692L17.4026 83.0177C13.379 81.319 6.92419 77.7545 5.84725 75.4982C3.90463 71.4286 9.65351 59.0984 14.3559 51.6433L15.0938 50.4746L14.5028 49.2251C14.4484 49.1104 9.06524 37.7233 7.64978 34.0028C6.53712 31.0786 7.99937 22.4744 9.50713 16.1601L22.3177 22.2528C22.3469 22.2667 22.3771 22.2782 22.4063 22.2921C20.2853 24.1378 18.9405 26.8538 18.9405 29.8797C18.9405 35.4268 23.4535 39.9398 29.0007 39.9398C34.5479 39.9398 39.0609 35.4268 39.0609 29.8797C39.0609 26.8463 37.7095 24.1243 35.5793 22.2782C35.5984 22.2692 35.6178 22.2619 35.6369 22.2528L48.4475 16.1601C49.9553 22.4741 51.4175 31.0783 50.3046 34.0028C48.8894 37.7231 43.506 49.1104 43.4516 49.2251L42.8586 50.4789L43.6025 51.6496C43.632 51.6961 46.5849 56.3608 49.0914 61.8234C53.3458 71.0972 52.6423 74.4557 52.1426 75.4693Z" fill="#000F08"></path>
    </symbol>
    <symbol fill="none" xmlns="http://www.w3.org/2000/svg" viewBox="0 0 24 25" id="search-icon">
        <path d="M23.7061 22.5569L17.9363 16.7671C19.3665 15.0174 20.2286 12.7762 20.2286 10.3335C20.2286 4.73041 15.698 0.184082 10.1143 0.184082C4.52571 0.184082 0 4.73041 0 10.3335C0 15.9365 4.52571 20.4828 10.1143 20.4828C12.5486 20.4828 14.7771 19.6227 16.5208 18.1876L22.2906 23.9725C22.6824 24.3656 23.3143 24.3656 23.7061 23.9725C24.098 23.5842 24.098 22.9452 23.7061 22.5569ZM10.1143 18.4628C5.64245 18.4628 2.00816 14.8159 2.00816 10.3335C2.00816 5.85102 5.64245 2.19921 10.1143 2.19921C14.5812 2.19921 18.2204 5.85102 18.2204 10.3335C18.2204 14.8159 14.5812 18.4628 10.1143 18.4628Z" fill="white"></path>
    </symbol>
        <symbol fill="none" xmlns="http://www.w3.org/2000/svg" viewBox="0 0 28 32" id="shopping-cart-icon">
            <path fill-rule="evenodd" clip-rule="evenodd" d="M20.5714 6.85714L27.4286 6.85714V32H0V6.85714L6.85714 6.85714C6.85714 3.07005 9.92719 0 13.7143 0C17.5014 0 20.5714 3.07005 20.5714 6.85714ZM18.2857 9.14286H9.14286V10.2857H18.2857V9.14286ZM6.85714 9.14286V12.5714L9.14285 12.5714V10.2857H18.2857V12.5714L20.5714 12.5714V9.14286H25.1429V29.7143H2.28571V9.14286H6.85714ZM9.14286 6.85714C9.14286 4.33241 11.1896 2.28571 13.7143 2.28571C16.239 2.28571 18.2857 4.33241 18.2857 6.85714H9.14286Z" fill="white"></path>
        </symbol>
        <symbol fill="none" xmlns="http://www.w3.org/2000/svg" viewBox="0 0 45 32" id="hamburger-menu-icon">
            <path d="M0 0H44.3077V2.46154H0V0Z" fill="white"></path>
            <path d="M0 14.769H44.3077V17.2306H0V14.769Z" fill="white"></path>
            <path d="M0 29.5386H29.5385V32.0001H0V29.5386Z" fill="white"></path>
        </symbol>
</svg>